<svg width="100%" viewBox="0 0 680 220" role="img" xmlns="http://www.w3.org/2000/svg">
  <title>RideShare NZ</title>

  <!-- CAR -->
  <g transform="translate(20, 20) scale(0.75)">
    <path d="
      M 20 148
      Q 10 148 8 138
      L 8 125
      Q 8 118 15 118
      L 30 118
      L 45 105
      L 85 68
      Q 100 52 125 46
      L 235 40
      Q 268 40 288 52
      L 335 90
      L 355 105
      L 375 118
      L 405 118
      Q 412 118 412 125
      L 412 138
      Q 412 148 402 148
      Z
    " fill="#1D9E75"/>

    <path d="
      M 95 112
      L 110 78
      Q 120 58 140 52
      L 235 46
      Q 262 46 278 60
      L 318 100
      L 338 112
      Z
    " fill="white"/>

    <path d="
      M 102 108
      L 116 76
      Q 125 60 143 55
      L 235 50
      Q 259 50 274 63
      L 312 100
      L 330 108
      Z
    " fill="#E1F5EE"/>

    <rect x="210" y="50" width="6" height="58" rx="2" fill="#1D9E75"/>

    <circle cx="95" cy="150" r="38" fill="#1D9E75"/>
    <circle cx="95" cy="150" r="28" fill="white"/>
    <circle cx="95" cy="150" r="20" fill="#0F6E56"/>
    <circle cx="95" cy="150" r="8" fill="white"/>

    <circle cx="335" cy="150" r="38" fill="#1D9E75"/>
    <circle cx="335" cy="150" r="28" fill="white"/>
    <circle cx="335" cy="150" r="20" fill="#0F6E56"/>
    <circle cx="335" cy="150" r="8" fill="white"/>
  </g>

  <!-- BRAND NAME -->
  <text x="360" y="118" text-anchor="start" font-family="Sora, sans-serif" font-size="58" font-weight="600" fill="#1D9E75">RideShare</text>
</svg>
